{
	"patcher" : 	{
		"fileversion" : 1,
		"appversion" : 		{
			"major" : 9,
			"minor" : 0,
			"revision" : 7,
			"architecture" : "x64",
			"modernui" : 1
		}
,
		"classnamespace" : "box",
		"rect" : [ 1721.0, 193.0, 861.0, 669.0 ],
		"gridsize" : [ 15.0, 15.0 ],
		"boxes" : [ 			{
				"box" : 				{
					"id" : "obj-15",
					"lastchannelcount" : 4,
					"maxclass" : "mc.live.gain~",
					"numinlets" : 1,
					"numoutlets" : 4,
					"outlettype" : [ "multichannelsignal", "", "float", "list" ],
					"parameter_enable" : 1,
					"patching_rect" : [ 27.0, 282.0, 77.0, 50.0 ],
					"saved_attribute_attributes" : 					{
						"valueof" : 						{
							"parameter_longname" : "mc.live.gain~[10]",
							"parameter_mmax" : 6.0,
							"parameter_mmin" : -70.0,
							"parameter_modmode" : 3,
							"parameter_shortname" : "blips",
							"parameter_type" : 0,
							"parameter_unitstyle" : 4
						}

					}
,
					"varname" : "mc.live.gain~[3]"
				}

			}
, 			{
				"box" : 				{
					"bgmode" : 0,
					"border" : 1,
					"clickthrough" : 0,
					"embed" : 1,
					"enablehscroll" : 0,
					"enablevscroll" : 0,
					"id" : "obj-22",
					"lockeddragscroll" : 0,
					"lockedsize" : 0,
					"maxclass" : "bpatcher",
					"numinlets" : 0,
					"numoutlets" : 0,
					"offset" : [ 0.0, 0.0 ],
					"patcher" : 					{
						"fileversion" : 1,
						"appversion" : 						{
							"major" : 9,
							"minor" : 0,
							"revision" : 7,
							"architecture" : "x64",
							"modernui" : 1
						}
,
						"classnamespace" : "box",
						"rect" : [ 749.0, 486.0, 436.0, 489.0 ],
						"openinpresentation" : 1,
						"gridsize" : [ 15.0, 15.0 ],
						"boxes" : [ 							{
								"box" : 								{
									"fontface" : 1,
									"fontname" : "Arial",
									"fontsize" : 10.0,
									"id" : "obj-1",
									"maxclass" : "comment",
									"numinlets" : 1,
									"numoutlets" : 0,
									"patching_rect" : [ 415.0, 301.986780166625977, 94.0, 18.0 ],
									"presentation" : 1,
									"presentation_rect" : [ 135.416663438081741, 3.311258554458618, 76.543215990066528, 18.0 ],
									"text" : "Memory Used"
								}

							}
, 							{
								"box" : 								{
									"id" : "obj-60",
									"maxclass" : "newobj",
									"numinlets" : 2,
									"numoutlets" : 1,
									"outlettype" : [ "float" ],
									"patching_rect" : [ 419.0, 131.0, 37.0, 22.0 ],
									"text" : "float"
								}

							}
, 							{
								"box" : 								{
									"id" : "obj-104",
									"maxclass" : "newobj",
									"numinlets" : 2,
									"numoutlets" : 1,
									"outlettype" : [ "" ],
									"patching_rect" : [ 273.0, 78.0, 54.0, 22.0 ],
									"text" : "qlim 100"
								}

							}
, 							{
								"box" : 								{
									"id" : "obj-107",
									"maxclass" : "newobj",
									"numinlets" : 1,
									"numoutlets" : 2,
									"outlettype" : [ "bang", "float" ],
									"patching_rect" : [ 273.0, 51.0, 67.250061000000002, 22.0 ],
									"text" : "t b f"
								}

							}
, 							{
								"box" : 								{
									"id" : "obj-108",
									"maxclass" : "newobj",
									"numinlets" : 2,
									"numoutlets" : 1,
									"outlettype" : [ "float" ],
									"patching_rect" : [ 273.0, 131.0, 67.250061000000002, 22.0 ],
									"text" : "float"
								}

							}
, 							{
								"box" : 								{
									"id" : "obj-99",
									"maxclass" : "newobj",
									"numinlets" : 1,
									"numoutlets" : 3,
									"outlettype" : [ "", "int", "int" ],
									"patching_rect" : [ 419.0, 185.0, 48.0, 22.0 ],
									"text" : "change"
								}

							}
, 							{
								"box" : 								{
									"fontname" : "Arial",
									"fontsize" : 11.0,
									"id" : "obj-100",
									"maxclass" : "newobj",
									"numinlets" : 2,
									"numoutlets" : 1,
									"outlettype" : [ "" ],
									"patching_rect" : [ 419.0, 161.0, 37.0, 21.0 ],
									"text" : "round"
								}

							}
, 							{
								"box" : 								{
									"id" : "obj-88",
									"maxclass" : "newobj",
									"numinlets" : 1,
									"numoutlets" : 3,
									"outlettype" : [ "", "int", "int" ],
									"patching_rect" : [ 273.0, 185.0, 61.0, 22.0 ],
									"text" : "change 0."
								}

							}
, 							{
								"box" : 								{
									"fontname" : "Arial",
									"fontsize" : 11.0,
									"id" : "obj-89",
									"maxclass" : "newobj",
									"numinlets" : 2,
									"numoutlets" : 1,
									"outlettype" : [ "" ],
									"patching_rect" : [ 273.0, 161.0, 57.0, 21.0 ],
									"text" : "round 0.1"
								}

							}
, 							{
								"box" : 								{
									"id" : "obj-50",
									"maxclass" : "newobj",
									"numinlets" : 1,
									"numoutlets" : 3,
									"outlettype" : [ "", "int", "int" ],
									"patching_rect" : [ 112.0, 131.0, 61.0, 22.0 ],
									"text" : "change 0."
								}

							}
, 							{
								"box" : 								{
									"fontface" : 1,
									"fontname" : "Arial",
									"fontsize" : 10.0,
									"id" : "obj-95",
									"maxclass" : "comment",
									"numinlets" : 1,
									"numoutlets" : 0,
									"patching_rect" : [ 111.920539140701294, 227.81458854675293, 49.0, 18.0 ],
									"presentation" : 1,
									"presentation_rect" : [ 82.916664689779282, 3.311258554458618, 47.08333221077919, 18.0 ],
									"text" : "75.0 %",
									"textjustification" : 2
								}

							}
, 							{
								"box" : 								{
									"fontname" : "Arial",
									"fontsize" : 11.0,
									"id" : "obj-96",
									"maxclass" : "newobj",
									"numinlets" : 1,
									"numoutlets" : 1,
									"outlettype" : [ "" ],
									"patching_rect" : [ 112.0, 187.0, 69.0, 21.0 ],
									"text" : "prepend set"
								}

							}
, 							{
								"box" : 								{
									"fontname" : "Arial",
									"fontsize" : 11.0,
									"id" : "obj-98",
									"maxclass" : "newobj",
									"numinlets" : 2,
									"numoutlets" : 1,
									"outlettype" : [ "" ],
									"patching_rect" : [ 112.0, 159.0, 123.0, 21.0 ],
									"text" : "sprintf symout \"%.1f %\""
								}

							}
, 							{
								"box" : 								{
									"fontname" : "Arial",
									"fontsize" : 11.0,
									"id" : "obj-24",
									"maxclass" : "newobj",
									"numinlets" : 2,
									"numoutlets" : 1,
									"outlettype" : [ "" ],
									"patching_rect" : [ 112.0, 103.0, 57.0, 21.0 ],
									"text" : "round 0.1"
								}

							}
, 							{
								"box" : 								{
									"fontface" : 1,
									"fontname" : "Arial",
									"fontsize" : 10.0,
									"id" : "obj-80",
									"maxclass" : "comment",
									"numinlets" : 1,
									"numoutlets" : 0,
									"patching_rect" : [ 272.847704887390137, 277.483466863632202, 47.0, 18.0 ],
									"presentation" : 1,
									"presentation_rect" : [ 83.0, 23.0, 46.728127256035805, 18.0 ],
									"text" : "85.2 %",
									"textjustification" : 2
								}

							}
, 							{
								"box" : 								{
									"fontname" : "Arial",
									"fontsize" : 11.0,
									"id" : "obj-75",
									"maxclass" : "newobj",
									"numinlets" : 1,
									"numoutlets" : 1,
									"outlettype" : [ "" ],
									"patching_rect" : [ 273.0, 235.0, 67.0, 21.0 ],
									"text" : "prepend set"
								}

							}
, 							{
								"box" : 								{
									"fontname" : "Arial",
									"fontsize" : 11.0,
									"id" : "obj-79",
									"maxclass" : "newobj",
									"numinlets" : 2,
									"numoutlets" : 1,
									"outlettype" : [ "" ],
									"patching_rect" : [ 273.0, 211.0, 123.0, 21.0 ],
									"text" : "sprintf symout \"%.1f %\""
								}

							}
, 							{
								"box" : 								{
									"fontname" : "Arial",
									"fontsize" : 11.0,
									"id" : "obj-74",
									"maxclass" : "newobj",
									"numinlets" : 1,
									"numoutlets" : 1,
									"outlettype" : [ "" ],
									"patching_rect" : [ 419.0, 235.0, 67.0, 21.0 ],
									"text" : "prepend set"
								}

							}
, 							{
								"box" : 								{
									"fontname" : "Arial",
									"fontsize" : 11.0,
									"id" : "obj-66",
									"maxclass" : "newobj",
									"numinlets" : 1,
									"numoutlets" : 1,
									"outlettype" : [ "" ],
									"patching_rect" : [ 419.0, 211.0, 77.0, 21.0 ],
									"text" : "sprintf %d MB"
								}

							}
, 							{
								"box" : 								{
									"allowdrag" : 0,
									"bgcolor" : [ 0.647058823529412, 0.647058823529412, 0.647058823529412, 0.29 ],
									"bgfillcolor_angle" : 270.0,
									"bgfillcolor_autogradient" : 0.0,
									"bgfillcolor_color" : [ 0.647058823529412, 0.647058823529412, 0.647058823529412, 0.29 ],
									"bgfillcolor_color1" : [ 0.376471, 0.384314, 0.4, 1.0 ],
									"bgfillcolor_color2" : [ 0.290196, 0.309804, 0.301961, 1.0 ],
									"bgfillcolor_proportion" : 0.39,
									"bgfillcolor_type" : "color",
									"fontface" : 1,
									"fontsize" : 10.0,
									"id" : "obj-77",
									"items" : [ "None", ",", "VG278", ",", "Sprout100", ",", "MacBook Pro Speakers", ",", "ZoomAudioDevice" ],
									"maxclass" : "umenu",
									"numinlets" : 1,
									"numoutlets" : 3,
									"outlettype" : [ "int", "", "" ],
									"parameter_enable" : 0,
									"patching_rect" : [ 40.0, 266.0, 166.0, 20.0 ],
									"presentation" : 1,
									"presentation_rect" : [ 135.0, 22.0, 133.333343982696533, 20.0 ],
									"textcolor" : [ 0.149, 0.149, 0.149, 1.0 ]
								}

							}
, 							{
								"box" : 								{
									"color" : [ 0.7, 0.7, 0.7, 1.0 ],
									"fontname" : "Arial",
									"fontsize" : 10.435669000000001,
									"id" : "obj-71",
									"maxclass" : "newobj",
									"numinlets" : 2,
									"numoutlets" : 2,
									"outlettype" : [ "", "int" ],
									"patching_rect" : [ 40.0, 287.0, 90.0, 20.0 ],
									"text" : "adstatus option 1"
								}

							}
, 							{
								"box" : 								{
									"fontface" : 1,
									"fontname" : "Arial",
									"fontsize" : 10.0,
									"id" : "obj-28",
									"maxclass" : "comment",
									"numinlets" : 1,
									"numoutlets" : 0,
									"patching_rect" : [ 419.20533299446106, 276.158963441848755, 76.0, 18.0 ],
									"presentation" : 1,
									"presentation_rect" : [ 218.749994784593582, 3.311258554458618, 49.382719993591309, 18.0 ],
									"text" : "5943 MB",
									"textjustification" : 2
								}

							}
, 							{
								"box" : 								{
									"fontface" : 1,
									"fontname" : "Arial",
									"fontsize" : 10.0,
									"id" : "obj-8",
									"maxclass" : "comment",
									"numinlets" : 1,
									"numoutlets" : 0,
									"patching_rect" : [ 272.847704887390137, 301.986780166625977, 95.0, 18.0 ],
									"presentation" : 1,
									"presentation_rect" : [ 4.0, 23.0, 76.234573990106583, 18.0 ],
									"text" : "Max/MSP CPU"
								}

							}
, 							{
								"box" : 								{
									"fontname" : "Arial",
									"fontsize" : 11.0,
									"id" : "obj-13",
									"maxclass" : "newobj",
									"numinlets" : 1,
									"numoutlets" : 5,
									"outlettype" : [ "", "", "", "", "" ],
									"patching_rect" : [ 273.0, 21.0, 290.0, 21.0 ],
									"text" : "spat5.cpu @initwith \"/rate 1500\""
								}

							}
, 							{
								"box" : 								{
									"fontname" : "Arial",
									"fontsize" : 11.0,
									"id" : "obj-3",
									"maxclass" : "newobj",
									"numinlets" : 1,
									"numoutlets" : 4,
									"outlettype" : [ "int", "float", "int", "int" ],
									"patching_rect" : [ 112.0, 21.0, 59.5, 21.0 ],
									"text" : "dspstate~"
								}

							}
, 							{
								"box" : 								{
									"fontface" : 1,
									"fontname" : "Arial",
									"fontsize" : 10.0,
									"id" : "obj-5",
									"maxclass" : "comment",
									"numinlets" : 1,
									"numoutlets" : 0,
									"patching_rect" : [ 39.735102653503418, 227.81458854675293, 61.0, 18.0 ],
									"presentation" : 1,
									"presentation_rect" : [ 3.973510265350342, 3.311258554458618, 76.234573990106583, 18.0 ],
									"text" : "Audio CPU"
								}

							}
, 							{
								"box" : 								{
									"fontname" : "Arial",
									"fontsize" : 11.0,
									"id" : "obj-36",
									"maxclass" : "newobj",
									"numinlets" : 2,
									"numoutlets" : 1,
									"outlettype" : [ "bang" ],
									"patching_rect" : [ 112.0, 48.0, 64.0, 21.0 ],
									"text" : "qmetro 500"
								}

							}
, 							{
								"box" : 								{
									"fontname" : "Arial",
									"fontsize" : 11.0,
									"id" : "obj-32",
									"maxclass" : "newobj",
									"numinlets" : 2,
									"numoutlets" : 2,
									"outlettype" : [ "", "int" ],
									"patching_rect" : [ 112.0, 76.0, 73.0, 21.0 ],
									"text" : "adstatus cpu"
								}

							}
 ],
						"lines" : [ 							{
								"patchline" : 								{
									"destination" : [ "obj-99", 0 ],
									"source" : [ "obj-100", 0 ]
								}

							}
, 							{
								"patchline" : 								{
									"destination" : [ "obj-108", 0 ],
									"order" : 1,
									"source" : [ "obj-104", 0 ]
								}

							}
, 							{
								"patchline" : 								{
									"destination" : [ "obj-60", 0 ],
									"order" : 0,
									"source" : [ "obj-104", 0 ]
								}

							}
, 							{
								"patchline" : 								{
									"destination" : [ "obj-104", 0 ],
									"source" : [ "obj-107", 0 ]
								}

							}
, 							{
								"patchline" : 								{
									"destination" : [ "obj-108", 1 ],
									"source" : [ "obj-107", 1 ]
								}

							}
, 							{
								"patchline" : 								{
									"destination" : [ "obj-89", 0 ],
									"source" : [ "obj-108", 0 ]
								}

							}
, 							{
								"patchline" : 								{
									"destination" : [ "obj-107", 0 ],
									"source" : [ "obj-13", 0 ]
								}

							}
, 							{
								"patchline" : 								{
									"destination" : [ "obj-60", 1 ],
									"source" : [ "obj-13", 2 ]
								}

							}
, 							{
								"patchline" : 								{
									"destination" : [ "obj-50", 0 ],
									"source" : [ "obj-24", 0 ]
								}

							}
, 							{
								"patchline" : 								{
									"destination" : [ "obj-36", 0 ],
									"source" : [ "obj-3", 0 ]
								}

							}
, 							{
								"patchline" : 								{
									"destination" : [ "obj-24", 0 ],
									"source" : [ "obj-32", 0 ]
								}

							}
, 							{
								"patchline" : 								{
									"destination" : [ "obj-32", 0 ],
									"source" : [ "obj-36", 0 ]
								}

							}
, 							{
								"patchline" : 								{
									"destination" : [ "obj-98", 0 ],
									"source" : [ "obj-50", 0 ]
								}

							}
, 							{
								"patchline" : 								{
									"destination" : [ "obj-100", 0 ],
									"source" : [ "obj-60", 0 ]
								}

							}
, 							{
								"patchline" : 								{
									"destination" : [ "obj-74", 0 ],
									"source" : [ "obj-66", 0 ]
								}

							}
, 							{
								"patchline" : 								{
									"destination" : [ "obj-77", 0 ],
									"midpoints" : [ 49.5, 313.5, 34.5, 313.5, 34.5, 255.5, 49.5, 255.5 ],
									"source" : [ "obj-71", 0 ]
								}

							}
, 							{
								"patchline" : 								{
									"destination" : [ "obj-28", 0 ],
									"source" : [ "obj-74", 0 ]
								}

							}
, 							{
								"patchline" : 								{
									"destination" : [ "obj-80", 0 ],
									"source" : [ "obj-75", 0 ]
								}

							}
, 							{
								"patchline" : 								{
									"destination" : [ "obj-71", 0 ],
									"source" : [ "obj-77", 0 ]
								}

							}
, 							{
								"patchline" : 								{
									"destination" : [ "obj-75", 0 ],
									"source" : [ "obj-79", 0 ]
								}

							}
, 							{
								"patchline" : 								{
									"destination" : [ "obj-79", 0 ],
									"source" : [ "obj-88", 0 ]
								}

							}
, 							{
								"patchline" : 								{
									"destination" : [ "obj-88", 0 ],
									"source" : [ "obj-89", 0 ]
								}

							}
, 							{
								"patchline" : 								{
									"destination" : [ "obj-95", 0 ],
									"source" : [ "obj-96", 0 ]
								}

							}
, 							{
								"patchline" : 								{
									"destination" : [ "obj-96", 0 ],
									"source" : [ "obj-98", 0 ]
								}

							}
, 							{
								"patchline" : 								{
									"destination" : [ "obj-66", 0 ],
									"source" : [ "obj-99", 0 ]
								}

							}
 ]
					}
,
					"patching_rect" : [ 576.0, 16.0, 274.0, 46.0 ],
					"viewvisibility" : 1
				}

			}
, 			{
				"box" : 				{
					"id" : "obj-21",
					"maxclass" : "newobj",
					"numinlets" : 0,
					"numoutlets" : 1,
					"outlettype" : [ "multichannelsignal" ],
					"patching_rect" : [ 27.0, 246.0, 73.0, 22.0 ],
					"text" : "mem.blips 0"
				}

			}
, 			{
				"box" : 				{
					"id" : "obj-20",
					"maxclass" : "newobj",
					"numinlets" : 0,
					"numoutlets" : 1,
					"outlettype" : [ "" ],
					"patching_rect" : [ 110.0, 349.0, 108.0, 22.0 ],
					"text" : "r mem.wfsSources"
				}

			}
, 			{
				"box" : 				{
					"id" : "obj-14",
					"maxclass" : "newobj",
					"numinlets" : 2,
					"numoutlets" : 1,
					"outlettype" : [ "multichannelsignal" ],
					"patching_rect" : [ 27.0, 467.0, 68.0, 22.0 ],
					"text" : "mc.stereo~"
				}

			}
, 			{
				"box" : 				{
					"id" : "obj-6",
					"maxclass" : "newobj",
					"numinlets" : 0,
					"numoutlets" : 2,
					"outlettype" : [ "", "" ],
					"patching_rect" : [ 371.0, 349.0, 144.0, 22.0 ],
					"text" : "mem.wfsReverbPositions"
				}

			}
, 			{
				"box" : 				{
					"id" : "obj-61",
					"maxclass" : "newobj",
					"numinlets" : 2,
					"numoutlets" : 1,
					"outlettype" : [ "multichannelsignal" ],
					"patching_rect" : [ 286.0, 349.0, 67.0, 22.0 ],
					"text" : "mem.wfs 6"
				}

			}
, 			{
				"box" : 				{
					"id" : "obj-60",
					"lastchannelcount" : 6,
					"maxclass" : "mc.live.gain~",
					"numinlets" : 1,
					"numoutlets" : 4,
					"outlettype" : [ "multichannelsignal", "", "float", "list" ],
					"parameter_enable" : 1,
					"patching_rect" : [ 286.0, 282.0, 77.0, 50.0 ],
					"saved_attribute_attributes" : 					{
						"valueof" : 						{
							"parameter_longname" : "mc.live.gain~[8]",
							"parameter_mmax" : 6.0,
							"parameter_mmin" : -70.0,
							"parameter_modmode" : 3,
							"parameter_shortname" : "reverb send",
							"parameter_type" : 0,
							"parameter_unitstyle" : 4
						}

					}
,
					"varname" : "mc.live.gain~[2]"
				}

			}
, 			{
				"box" : 				{
					"id" : "obj-59",
					"maxclass" : "newobj",
					"numinlets" : 0,
					"numoutlets" : 1,
					"outlettype" : [ "multichannelsignal" ],
					"patcher" : 					{
						"fileversion" : 1,
						"appversion" : 						{
							"major" : 9,
							"minor" : 0,
							"revision" : 7,
							"architecture" : "x64",
							"modernui" : 1
						}
,
						"classnamespace" : "box",
						"rect" : [ 2782.0, 486.0, 446.0, 249.0 ],
						"gridsize" : [ 15.0, 15.0 ],
						"boxes" : [ 							{
								"box" : 								{
									"id" : "obj-9",
									"maxclass" : "message",
									"numinlets" : 2,
									"numoutlets" : 1,
									"outlettype" : [ "" ],
									"patching_rect" : [ 223.0, 61.5, 107.0, 22.0 ],
									"text" : "\"Analyzer Mode\" 0"
								}

							}
, 							{
								"box" : 								{
									"id" : "obj-7",
									"maxclass" : "message",
									"numinlets" : 2,
									"numoutlets" : 1,
									"outlettype" : [ "" ],
									"patching_rect" : [ 163.0, 61.5, 41.0, 22.0 ],
									"text" : "Mix 1."
								}

							}
, 							{
								"box" : 								{
									"id" : "obj-6",
									"maxclass" : "newobj",
									"numinlets" : 1,
									"numoutlets" : 1,
									"outlettype" : [ "bang" ],
									"patching_rect" : [ 163.0, 19.0, 58.0, 22.0 ],
									"text" : "loadbang"
								}

							}
, 							{
								"box" : 								{
									"fontface" : 1,
									"id" : "obj-14",
									"maxclass" : "comment",
									"numinlets" : 1,
									"numoutlets" : 0,
									"patching_rect" : [ 242.0, 105.0, 163.0, 20.0 ],
									"text" : "dsp cathedral setting"
								}

							}
, 							{
								"box" : 								{
									"id" : "obj-3",
									"maxclass" : "newobj",
									"numinlets" : 1,
									"numoutlets" : 1,
									"outlettype" : [ "multichannelsignal" ],
									"patching_rect" : [ 24.0, 19.0, 121.0, 22.0 ],
									"text" : "mc.receive~ reverb 6"
								}

							}
, 							{
								"box" : 								{
									"comment" : "",
									"id" : "obj-2",
									"index" : 1,
									"maxclass" : "outlet",
									"numinlets" : 1,
									"numoutlets" : 0,
									"patching_rect" : [ 24.0, 189.0, 30.0, 30.0 ]
								}

							}
, 							{
								"box" : 								{
									"id" : "obj-47",
									"maxclass" : "newobj",
									"numinlets" : 2,
									"numoutlets" : 1,
									"outlettype" : [ "multichannelsignal" ],
									"patching_rect" : [ 24.0, 146.5, 97.0, 22.0 ],
									"text" : "mc.interleave~ 2"
								}

							}
, 							{
								"box" : 								{
									"id" : "obj-44",
									"maxclass" : "newobj",
									"numinlets" : 1,
									"numoutlets" : 2,
									"outlettype" : [ "multichannelsignal", "multichannelsignal" ],
									"patching_rect" : [ 24.0, 61.5, 110.0, 22.0 ],
									"text" : "mc.deinterleave~ 2"
								}

							}
, 							{
								"box" : 								{
									"bgmode" : 0,
									"border" : 0,
									"clickthrough" : 0,
									"data" : 									{
										"autosave" : 1,
										"snapshot" : 										{
											"filetype" : "C74Snapshot",
											"version" : 2,
											"minorversion" : 0,
											"name" : "snapshotlist",
											"origin" : "vst~",
											"type" : "list",
											"subtype" : "Undefined",
											"embed" : 1,
											"snapshot" : 											{
												"pluginname" : "FabFilter Pro-R 2.vstinfo",
												"plugindisplayname" : "FabFilter Pro-R 2",
												"pluginsavedname" : "",
												"pluginsaveduniqueid" : 1179791984,
												"version" : 1,
												"isbank" : 0,
												"isbase64" : 1,
												"blob" : "898.CMlaKA....fQPMDZ....AXjTx.G...P.....APzTPAxPgQGZkQlbgwF......................LfQFYjPSE.....h....Wo0S+....9S0KvxO7hRx8....9CuzsyONWHM+1yJZ7C........xBA............fdCA...............bfNs6C..............9C...3OX.fq.A...9SIevjO.....A...9C...3O...f+HwkzDDb4g2u9lFE+.........3O...f+....9ifAyMPf3V59Busb6C........f+....9C...3OxU0EAQgxt86sIPwO.........9C...3O...f+b7oDDDZlo2uwF3N+.........3O.........9iPBHQPb+PI+5HZp7C........f+....9C...3OX6iGAg45DCL33CsO.........9C....P...f+....9C...3OYW1.AQSJcETRVyrO.....A...9C....P...f+....9C...3OfR5PAAd1gET4wrqO...P.A...9C...HP...f+....9C...3OjhMWAA....vJSAmO...f.A....D....P...f+....9C...3OLe9HAAgHsBLT.vxO.........9C....P...f+....9C...3OZjBIAA35EAzHVevO.........9C...HP...f+....7C...vO....+....7C...vO....+....7C...vO....+.....PyLyzOMyLS+....7C....................................P.....XjTx.2.....M....PzTPAxPgQGZkQlbgw1+++++A.........P.....CU2TVE....v.....F....DTUTgzSRY....fXMElaoM1B....DUzTCIURPQURO4Dc....AAxYuI2Yk8VcywVdf7Fbk4FHg4FYfTlYl8lbzwVYyMGHxUlckImXfbWZzgFHgAhbkEFarkGHr8lamARdkQGHtEFc0IWXrABYkMVX44BHVUlb4ARa0MWZiEFafz1ajUGagQWZu4FHl8lbfPGZkABcgkFatn.A....TEzQS4C...fUkIWdfvTXxcVYrvzatcFKVklazE1YkwxSvUlar.UXjMGKV81Xgw1brvTYgQ1brXDVrLUdtQGZr.kbu0hTx."
											}
,
											"snapshotlist" : 											{
												"current_snapshot" : 0,
												"entries" : [ 													{
														"filetype" : "C74Snapshot",
														"version" : 2,
														"minorversion" : 0,
														"name" : "Pro-R 2",
														"origin" : "FabFilter Pro-R 2.vstinfo",
														"type" : "VST",
														"subtype" : "MidiEffect",
														"embed" : 1,
														"snapshot" : 														{
															"pluginname" : "FabFilter Pro-R 2.vstinfo",
															"plugindisplayname" : "FabFilter Pro-R 2",
															"pluginsavedname" : "",
															"pluginsaveduniqueid" : 1179791984,
															"version" : 1,
															"isbank" : 0,
															"isbase64" : 1,
															"blob" : "898.CMlaKA....fQPMDZ....AXjTx.G...P.....APzTPAxPgQGZkQlbgwF......................LfQFYjPSE.....h....Wo0S+....9S0KvxO7hRx8....9CuzsyONWHM+1yJZ7C........xBA............fdCA...............bfNs6C..............9C...3OX.fq.A...9SIevjO.....A...9C...3O...f+HwkzDDb4g2u9lFE+.........3O...f+....9ifAyMPf3V59Busb6C........f+....9C...3OxU0EAQgxt86sIPwO.........9C...3O...f+b7oDDDZlo2uwF3N+.........3O.........9iPBHQPb+PI+5HZp7C........f+....9C...3OX6iGAg45DCL33CsO.........9C....P...f+....9C...3OYW1.AQSJcETRVyrO.....A...9C....P...f+....9C...3OfR5PAAd1gET4wrqO...P.A...9C...HP...f+....9C...3OjhMWAA....vJSAmO...f.A....D....P...f+....9C...3OLe9HAAgHsBLT.vxO.........9C....P...f+....9C...3OZjBIAA35EAzHVevO.........9C...HP...f+....7C...vO....+....7C...vO....+....7C...vO....+.....PyLyzOMyLS+....7C....................................P.....XjTx.2.....M....PzTPAxPgQGZkQlbgw1+++++A.........P.....CU2TVE....v.....F....DTUTgzSRY....fXMElaoM1B....DUzTCIURPQURO4Dc....AAxYuI2Yk8VcywVdf7Fbk4FHg4FYfTlYl8lbzwVYyMGHxUlckImXfbWZzgFHgAhbkEFarkGHr8lamARdkQGHtEFc0IWXrABYkMVX44BHVUlb4ARa0MWZiEFafz1ajUGagQWZu4FHl8lbfPGZkABcgkFatn.A....TEzQS4C...fUkIWdfvTXxcVYrvzatcFKVklazE1YkwxSvUlar.UXjMGKV81Xgw1brvTYgQ1brXDVrLUdtQGZr.kbu0hTx."
														}
,
														"fileref" : 														{
															"name" : "Pro-R 2",
															"filename" : "Pro-R 2_20250502.maxsnap",
															"filepath" : "~/Documents/Max 9/Snapshots",
															"filepos" : -1,
															"snapshotfileid" : "1adf382a89cf4b851763c10a5dbfecc7"
														}

													}
 ]
											}

										}

									}
,
									"enablehscroll" : 0,
									"enablevscroll" : 0,
									"id" : "obj-43",
									"lockeddragscroll" : 0,
									"lockedsize" : 0,
									"maxclass" : "newobj",
									"numinlets" : 2,
									"numoutlets" : 9,
									"offset" : [ 0.0, 0.0 ],
									"outlettype" : [ "multichannelsignal", "multichannelsignal", "", "", "", "", "", "", "" ],
									"patching_rect" : [ 24.0, 104.0, 189.0, 22.0 ],
									"saved_object_attributes" : 									{
										"parameter_enable" : 1,
										"parameter_mappable" : 0
									}
,
									"text" : "mc.vst~ \"FabFilter Pro-R 2.vst3\" 3",
									"varname" : "mc.vst~",
									"viewvisibility" : 0
								}

							}
 ],
						"lines" : [ 							{
								"patchline" : 								{
									"destination" : [ "obj-44", 0 ],
									"source" : [ "obj-3", 0 ]
								}

							}
, 							{
								"patchline" : 								{
									"destination" : [ "obj-47", 1 ],
									"source" : [ "obj-43", 1 ]
								}

							}
, 							{
								"patchline" : 								{
									"destination" : [ "obj-47", 0 ],
									"source" : [ "obj-43", 0 ]
								}

							}
, 							{
								"patchline" : 								{
									"destination" : [ "obj-43", 1 ],
									"source" : [ "obj-44", 1 ]
								}

							}
, 							{
								"patchline" : 								{
									"destination" : [ "obj-43", 0 ],
									"source" : [ "obj-44", 0 ]
								}

							}
, 							{
								"patchline" : 								{
									"destination" : [ "obj-2", 0 ],
									"source" : [ "obj-47", 0 ]
								}

							}
, 							{
								"patchline" : 								{
									"destination" : [ "obj-7", 0 ],
									"order" : 1,
									"source" : [ "obj-6", 0 ]
								}

							}
, 							{
								"patchline" : 								{
									"destination" : [ "obj-9", 0 ],
									"order" : 0,
									"source" : [ "obj-6", 0 ]
								}

							}
, 							{
								"patchline" : 								{
									"destination" : [ "obj-43", 0 ],
									"source" : [ "obj-7", 0 ]
								}

							}
, 							{
								"patchline" : 								{
									"destination" : [ "obj-43", 0 ],
									"source" : [ "obj-9", 0 ]
								}

							}
 ]
					}
,
					"patching_rect" : [ 286.0, 246.0, 53.0, 22.0 ],
					"text" : "p reverb"
				}

			}
, 			{
				"box" : 				{
					"id" : "obj-12",
					"maxclass" : "newobj",
					"numinlets" : 0,
					"numoutlets" : 1,
					"outlettype" : [ "multichannelsignal" ],
					"patching_rect" : [ 170.5, 125.0, 133.0, 22.0 ],
					"text" : "mem.memory 2 insects"
				}

			}
, 			{
				"box" : 				{
					"id" : "obj-10",
					"lastchannelcount" : 2,
					"maxclass" : "mc.live.gain~",
					"numinlets" : 1,
					"numoutlets" : 4,
					"outlettype" : [ "multichannelsignal", "", "float", "list" ],
					"parameter_enable" : 1,
					"patching_rect" : [ 170.5, 162.0, 49.0, 50.0 ],
					"saved_attribute_attributes" : 					{
						"valueof" : 						{
							"parameter_longname" : "mc.live.gain~[1]",
							"parameter_mmax" : 6.0,
							"parameter_mmin" : -70.0,
							"parameter_modmode" : 3,
							"parameter_shortname" : "mc.live.gain~[1]",
							"parameter_type" : 0,
							"parameter_unitstyle" : 4
						}

					}
,
					"varname" : "mc.live.gain~[1]"
				}

			}
, 			{
				"box" : 				{
					"id" : "obj-49",
					"maxclass" : "newobj",
					"numinlets" : 0,
					"numoutlets" : 1,
					"outlettype" : [ "multichannelsignal" ],
					"patching_rect" : [ 27.0, 125.0, 136.0, 22.0 ],
					"text" : "mem.memory 1 cicadas"
				}

			}
, 			{
				"box" : 				{
					"id" : "obj-48",
					"maxclass" : "newobj",
					"numinlets" : 1,
					"numoutlets" : 1,
					"outlettype" : [ "" ],
					"patcher" : 					{
						"fileversion" : 1,
						"appversion" : 						{
							"major" : 9,
							"minor" : 0,
							"revision" : 7,
							"architecture" : "x64",
							"modernui" : 1
						}
,
						"classnamespace" : "box",
						"rect" : [ 0.0, 0.0, 1000.0, 755.200000000000045 ],
						"gridsize" : [ 15.0, 15.0 ],
						"boxes" : [ 							{
								"box" : 								{
									"id" : "obj-37",
									"maxclass" : "newobj",
									"numinlets" : 1,
									"numoutlets" : 1,
									"outlettype" : [ "" ],
									"patching_rect" : [ 50.0, 274.0, 109.0, 22.0 ],
									"text" : "prepend /presence"
								}

							}
, 							{
								"box" : 								{
									"id" : "obj-17",
									"maxclass" : "newobj",
									"numinlets" : 1,
									"numoutlets" : 1,
									"outlettype" : [ "" ],
									"patching_rect" : [ 50.0, 239.0, 65.0, 22.0 ],
									"text" : "append 10"
								}

							}
, 							{
								"box" : 								{
									"id" : "obj-22",
									"maxclass" : "newobj",
									"numinlets" : 3,
									"numoutlets" : 1,
									"outlettype" : [ "" ],
									"patching_rect" : [ 50.0, 204.0, 160.0, 22.0 ],
									"text" : "pack i f f"
								}

							}
, 							{
								"box" : 								{
									"id" : "obj-21",
									"maxclass" : "newobj",
									"numinlets" : 1,
									"numoutlets" : 3,
									"outlettype" : [ "int", "float", "float" ],
									"patching_rect" : [ 50.0, 135.0, 160.0, 22.0 ],
									"text" : "unpack i f f"
								}

							}
, 							{
								"box" : 								{
									"id" : "obj-20",
									"maxclass" : "newobj",
									"numinlets" : 2,
									"numoutlets" : 2,
									"outlettype" : [ "", "" ],
									"patching_rect" : [ 50.0, 100.0, 66.0, 22.0 ],
									"text" : "route node"
								}

							}
, 							{
								"box" : 								{
									"id" : "obj-16",
									"maxclass" : "newobj",
									"numinlets" : 6,
									"numoutlets" : 1,
									"outlettype" : [ "" ],
									"patching_rect" : [ 191.0, 169.0, 90.0, 22.0 ],
									"text" : "scale 0. 1. 1. 0."
								}

							}
, 							{
								"box" : 								{
									"id" : "obj-14",
									"maxclass" : "newobj",
									"numinlets" : 6,
									"numoutlets" : 1,
									"outlettype" : [ "" ],
									"patching_rect" : [ 78.0, 169.0, 94.0, 22.0 ],
									"text" : "scale 0. 1. -1. 1."
								}

							}
, 							{
								"box" : 								{
									"comment" : "",
									"id" : "obj-45",
									"index" : 1,
									"maxclass" : "inlet",
									"numinlets" : 0,
									"numoutlets" : 1,
									"outlettype" : [ "" ],
									"patching_rect" : [ 50.0, 40.0, 30.0, 30.0 ]
								}

							}
, 							{
								"box" : 								{
									"comment" : "",
									"id" : "obj-46",
									"index" : 1,
									"maxclass" : "outlet",
									"numinlets" : 1,
									"numoutlets" : 0,
									"patching_rect" : [ 50.0, 356.0, 30.0, 30.0 ]
								}

							}
 ],
						"lines" : [ 							{
								"patchline" : 								{
									"destination" : [ "obj-22", 1 ],
									"source" : [ "obj-14", 0 ]
								}

							}
, 							{
								"patchline" : 								{
									"destination" : [ "obj-22", 2 ],
									"source" : [ "obj-16", 0 ]
								}

							}
, 							{
								"patchline" : 								{
									"destination" : [ "obj-37", 0 ],
									"source" : [ "obj-17", 0 ]
								}

							}
, 							{
								"patchline" : 								{
									"destination" : [ "obj-21", 0 ],
									"source" : [ "obj-20", 0 ]
								}

							}
, 							{
								"patchline" : 								{
									"destination" : [ "obj-14", 0 ],
									"source" : [ "obj-21", 1 ]
								}

							}
, 							{
								"patchline" : 								{
									"destination" : [ "obj-16", 0 ],
									"source" : [ "obj-21", 2 ]
								}

							}
, 							{
								"patchline" : 								{
									"destination" : [ "obj-22", 0 ],
									"source" : [ "obj-21", 0 ]
								}

							}
, 							{
								"patchline" : 								{
									"destination" : [ "obj-17", 0 ],
									"source" : [ "obj-22", 0 ]
								}

							}
, 							{
								"patchline" : 								{
									"destination" : [ "obj-46", 0 ],
									"source" : [ "obj-37", 0 ]
								}

							}
, 							{
								"patchline" : 								{
									"destination" : [ "obj-20", 0 ],
									"source" : [ "obj-45", 0 ]
								}

							}
 ]
					}
,
					"patching_rect" : [ 622.0, 430.0, 98.0, 22.0 ],
					"text" : "p presenceScale"
				}

			}
, 			{
				"box" : 				{
					"id" : "obj-44",
					"maxclass" : "newobj",
					"numinlets" : 0,
					"numoutlets" : 0,
					"patcher" : 					{
						"fileversion" : 1,
						"appversion" : 						{
							"major" : 9,
							"minor" : 0,
							"revision" : 7,
							"architecture" : "x64",
							"modernui" : 1
						}
,
						"classnamespace" : "box",
						"rect" : [ 726.0, 494.0, 333.0, 380.0 ],
						"gridsize" : [ 15.0, 15.0 ],
						"boxes" : [ 							{
								"box" : 								{
									"id" : "obj-43",
									"maxclass" : "newobj",
									"numinlets" : 0,
									"numoutlets" : 1,
									"outlettype" : [ "" ],
									"patching_rect" : [ 50.0, 100.0, 72.0, 22.0 ],
									"text" : "r mem.state"
								}

							}
, 							{
								"box" : 								{
									"id" : "obj-28",
									"maxclass" : "newobj",
									"numinlets" : 1,
									"numoutlets" : 1,
									"outlettype" : [ "" ],
									"patching_rect" : [ 50.0, 135.0, 85.0, 22.0 ],
									"text" : "prepend /state"
								}

							}
, 							{
								"box" : 								{
									"id" : "obj-26",
									"maxclass" : "newobj",
									"numinlets" : 1,
									"numoutlets" : 0,
									"patching_rect" : [ 50.0, 167.0, 86.0, 22.0 ],
									"text" : "s mem.oscOut"
								}

							}
, 							{
								"box" : 								{
									"id" : "obj-10",
									"maxclass" : "newobj",
									"numinlets" : 0,
									"numoutlets" : 1,
									"outlettype" : [ "" ],
									"patching_rect" : [ 51.0, 216.0, 84.0, 22.0 ],
									"text" : "r mem.oscOut"
								}

							}
, 							{
								"box" : 								{
									"id" : "obj-6",
									"maxclass" : "newobj",
									"numinlets" : 1,
									"numoutlets" : 0,
									"patching_rect" : [ 51.0, 259.0, 138.0, 22.0 ],
									"text" : "udpsend 127.0.0.1 6543"
								}

							}
 ],
						"lines" : [ 							{
								"patchline" : 								{
									"destination" : [ "obj-6", 0 ],
									"source" : [ "obj-10", 0 ]
								}

							}
, 							{
								"patchline" : 								{
									"destination" : [ "obj-26", 0 ],
									"source" : [ "obj-28", 0 ]
								}

							}
, 							{
								"patchline" : 								{
									"destination" : [ "obj-28", 0 ],
									"source" : [ "obj-43", 0 ]
								}

							}
 ]
					}
,
					"patching_rect" : [ 430.0, 270.0, 57.0, 22.0 ],
					"text" : "p oscOut"
				}

			}
, 			{
				"box" : 				{
					"id" : "obj-42",
					"maxclass" : "newobj",
					"numinlets" : 1,
					"numoutlets" : 0,
					"patching_rect" : [ 162.0, 525.0, 74.0, 22.0 ],
					"text" : "s mem.state"
				}

			}
, 			{
				"box" : 				{
					"id" : "obj-41",
					"maxclass" : "newobj",
					"numinlets" : 1,
					"numoutlets" : 0,
					"patching_rect" : [ 622.0, 462.0, 86.0, 22.0 ],
					"text" : "s mem.oscOut"
				}

			}
, 			{
				"box" : 				{
					"id" : "obj-39",
					"maxclass" : "message",
					"numinlets" : 2,
					"numoutlets" : 1,
					"outlettype" : [ "" ],
					"patching_rect" : [ 203.0, 481.0, 37.0, 22.0 ],
					"text" : "firefly"
				}

			}
, 			{
				"box" : 				{
					"id" : "obj-40",
					"maxclass" : "toggle",
					"numinlets" : 1,
					"numoutlets" : 1,
					"outlettype" : [ "int" ],
					"parameter_enable" : 0,
					"patching_rect" : [ 556.0, 198.0, 24.0, 24.0 ]
				}

			}
, 			{
				"box" : 				{
					"id" : "obj-30",
					"maxclass" : "message",
					"numinlets" : 2,
					"numoutlets" : 1,
					"outlettype" : [ "" ],
					"patching_rect" : [ 332.0, 481.0, 52.0, 22.0 ],
					"text" : "memory"
				}

			}
, 			{
				"box" : 				{
					"id" : "obj-29",
					"maxclass" : "message",
					"numinlets" : 2,
					"numoutlets" : 1,
					"outlettype" : [ "" ],
					"patching_rect" : [ 162.0, 481.0, 29.5, 22.0 ],
					"text" : "idle"
				}

			}
, 			{
				"box" : 				{
					"id" : "obj-25",
					"maxclass" : "message",
					"numinlets" : 2,
					"numoutlets" : 1,
					"outlettype" : [ "" ],
					"patching_rect" : [ 262.0, 481.0, 58.0, 22.0 ],
					"text" : "converge"
				}

			}
, 			{
				"box" : 				{
					"id" : "obj-23",
					"maxclass" : "newobj",
					"numinlets" : 2,
					"numoutlets" : 1,
					"outlettype" : [ "bang" ],
					"patching_rect" : [ 556.0, 235.0, 63.0, 22.0 ],
					"text" : "metro 100"
				}

			}
, 			{
				"box" : 				{
					"id" : "obj-18",
					"maxclass" : "newobj",
					"numinlets" : 0,
					"numoutlets" : 0,
					"patcher" : 					{
						"fileversion" : 1,
						"appversion" : 						{
							"major" : 9,
							"minor" : 0,
							"revision" : 7,
							"architecture" : "x64",
							"modernui" : 1
						}
,
						"classnamespace" : "box",
						"rect" : [ 134.0, 172.0, 380.0, 352.0 ],
						"gridsize" : [ 15.0, 15.0 ],
						"boxes" : [ 							{
								"box" : 								{
									"id" : "obj-2",
									"maxclass" : "message",
									"numinlets" : 2,
									"numoutlets" : 1,
									"outlettype" : [ "" ],
									"patching_rect" : [ 34.0, 316.0, 98.0, 22.0 ],
									"text" : "input \"HDMI 3\""
								}

							}
, 							{
								"box" : 								{
									"id" : "obj-24",
									"maxclass" : "newobj",
									"numinlets" : 1,
									"numoutlets" : 1,
									"outlettype" : [ "" ],
									"patching_rect" : [ 34.0, 24.0, 137.0, 22.0 ],
									"text" : "loadmess queryStatus 1"
								}

							}
, 							{
								"box" : 								{
									"args" : [ "192.168.0.8", 4352, "panasonic" ],
									"bgmode" : 0,
									"border" : 1,
									"clickthrough" : 0,
									"enablehscroll" : 0,
									"enablevscroll" : 0,
									"id" : "obj-17",
									"lockeddragscroll" : 0,
									"lockedsize" : 0,
									"maxclass" : "bpatcher",
									"name" : "pjlink.maxpat",
									"numinlets" : 0,
									"numoutlets" : 0,
									"offset" : [ 0.0, 0.0 ],
									"patching_rect" : [ 34.0, 61.0, 304.0, 244.0 ],
									"viewvisibility" : 1
								}

							}
 ],
						"lines" : [  ]
					}
,
					"patching_rect" : [ 233.0, 568.0, 65.0, 22.0 ],
					"text" : "p projector"
				}

			}
, 			{
				"box" : 				{
					"id" : "obj-13",
					"maxclass" : "toggle",
					"numinlets" : 1,
					"numoutlets" : 1,
					"outlettype" : [ "int" ],
					"parameter_enable" : 0,
					"patching_rect" : [ 505.0, 74.0, 24.0, 24.0 ]
				}

			}
, 			{
				"box" : 				{
					"id" : "obj-11",
					"maxclass" : "newobj",
					"numinlets" : 1,
					"numoutlets" : 0,
					"patching_rect" : [ 505.0, 109.0, 84.0, 22.0 ],
					"text" : "mem.carousel"
				}

			}
, 			{
				"box" : 				{
					"id" : "obj-3",
					"maxclass" : "newobj",
					"numinlets" : 0,
					"numoutlets" : 0,
					"patching_rect" : [ 430.0, 310.0, 85.0, 22.0 ],
					"text" : "mem.starField",
					"varname" : "mem.starField"
				}

			}
, 			{
				"box" : 				{
					"id" : "obj-9",
					"maxclass" : "newobj",
					"numinlets" : 0,
					"numoutlets" : 0,
					"patching_rect" : [ 311.0, 568.0, 61.0, 22.0 ],
					"text" : "mem.lidar"
				}

			}
, 			{
				"box" : 				{
					"id" : "obj-7",
					"maxclass" : "toggle",
					"numinlets" : 1,
					"numoutlets" : 1,
					"outlettype" : [ "int" ],
					"parameter_enable" : 0,
					"patching_rect" : [ 410.5, 143.0, 24.0, 24.0 ]
				}

			}
, 			{
				"box" : 				{
					"id" : "obj-5",
					"maxclass" : "newobj",
					"numinlets" : 0,
					"numoutlets" : 1,
					"outlettype" : [ "" ],
					"patching_rect" : [ 410.5, 109.0, 77.0, 22.0 ],
					"text" : "r mem.active"
				}

			}
, 			{
				"box" : 				{
					"id" : "obj-4",
					"maxclass" : "newobj",
					"numinlets" : 1,
					"numoutlets" : 0,
					"patching_rect" : [ 410.5, 177.0, 65.0, 22.0 ],
					"text" : "mem.haze"
				}

			}
, 			{
				"box" : 				{
					"id" : "obj-8",
					"maxclass" : "newobj",
					"numinlets" : 1,
					"numoutlets" : 0,
					"patching_rect" : [ 27.0, 499.0, 54.0, 22.0 ],
					"text" : "mc.dac~"
				}

			}
, 			{
				"box" : 				{
					"id" : "obj-2",
					"maxclass" : "nodes",
					"nodecolor" : [ 0.964705882352941, 0.784313725490196, 0.956862745098039, 1.0 ],
					"nodesnames" : [ "1" ],
					"nsize" : [ 0.05 ],
					"numinlets" : 1,
					"numoutlets" : 3,
					"outlettype" : [ "", "", "" ],
					"parameter_enable" : 0,
					"patching_rect" : [ 556.0, 270.0, 151.0, 147.0 ],
					"pointcolor" : [ 0.964705882352941, 0.784313725490196, 0.956862745098039, 1.0 ],
					"textcolor" : [ 0.0, 0.0, 0.0, 1.0 ],
					"xplace" : [ 0.357615894039735 ],
					"yplace" : [ 0.666666666666667 ]
				}

			}
, 			{
				"box" : 				{
					"id" : "obj-47",
					"lastchannelcount" : 64,
					"maxclass" : "mc.live.gain~",
					"numinlets" : 1,
					"numoutlets" : 4,
					"outlettype" : [ "multichannelsignal", "", "float", "list" ],
					"parameter_enable" : 1,
					"patching_rect" : [ 27.0, 400.0, 420.0, 52.0 ],
					"saved_attribute_attributes" : 					{
						"valueof" : 						{
							"parameter_longname" : "mc.live.gain~",
							"parameter_mmax" : 6.0,
							"parameter_mmin" : -70.0,
							"parameter_modmode" : 3,
							"parameter_shortname" : "main",
							"parameter_type" : 0,
							"parameter_unitstyle" : 4
						}

					}
,
					"varname" : "mc.live.gain~"
				}

			}
, 			{
				"box" : 				{
					"id" : "obj-1",
					"maxclass" : "newobj",
					"numinlets" : 2,
					"numoutlets" : 1,
					"outlettype" : [ "multichannelsignal" ],
					"patching_rect" : [ 27.0, 349.0, 73.0, 22.0 ],
					"text" : "mem.wfs 80"
				}

			}
 ],
		"lines" : [ 			{
				"patchline" : 				{
					"destination" : [ "obj-47", 0 ],
					"source" : [ "obj-1", 0 ]
				}

			}
, 			{
				"patchline" : 				{
					"destination" : [ "obj-10", 0 ],
					"source" : [ "obj-12", 0 ]
				}

			}
, 			{
				"patchline" : 				{
					"destination" : [ "obj-11", 0 ],
					"source" : [ "obj-13", 0 ]
				}

			}
, 			{
				"patchline" : 				{
					"destination" : [ "obj-8", 0 ],
					"source" : [ "obj-14", 0 ]
				}

			}
, 			{
				"patchline" : 				{
					"destination" : [ "obj-1", 0 ],
					"source" : [ "obj-15", 0 ]
				}

			}
, 			{
				"patchline" : 				{
					"destination" : [ "obj-48", 0 ],
					"source" : [ "obj-2", 1 ]
				}

			}
, 			{
				"patchline" : 				{
					"destination" : [ "obj-1", 1 ],
					"source" : [ "obj-20", 0 ]
				}

			}
, 			{
				"patchline" : 				{
					"destination" : [ "obj-15", 0 ],
					"source" : [ "obj-21", 0 ]
				}

			}
, 			{
				"patchline" : 				{
					"destination" : [ "obj-2", 0 ],
					"source" : [ "obj-23", 0 ]
				}

			}
, 			{
				"patchline" : 				{
					"destination" : [ "obj-42", 0 ],
					"source" : [ "obj-25", 0 ]
				}

			}
, 			{
				"patchline" : 				{
					"destination" : [ "obj-42", 0 ],
					"source" : [ "obj-29", 0 ]
				}

			}
, 			{
				"patchline" : 				{
					"destination" : [ "obj-42", 0 ],
					"source" : [ "obj-30", 0 ]
				}

			}
, 			{
				"patchline" : 				{
					"destination" : [ "obj-42", 0 ],
					"source" : [ "obj-39", 0 ]
				}

			}
, 			{
				"patchline" : 				{
					"destination" : [ "obj-23", 0 ],
					"source" : [ "obj-40", 0 ]
				}

			}
, 			{
				"patchline" : 				{
					"destination" : [ "obj-14", 0 ],
					"source" : [ "obj-47", 0 ]
				}

			}
, 			{
				"patchline" : 				{
					"destination" : [ "obj-41", 0 ],
					"source" : [ "obj-48", 0 ]
				}

			}
, 			{
				"patchline" : 				{
					"destination" : [ "obj-7", 0 ],
					"source" : [ "obj-5", 0 ]
				}

			}
, 			{
				"patchline" : 				{
					"destination" : [ "obj-60", 0 ],
					"source" : [ "obj-59", 0 ]
				}

			}
, 			{
				"patchline" : 				{
					"destination" : [ "obj-61", 1 ],
					"source" : [ "obj-6", 0 ]
				}

			}
, 			{
				"patchline" : 				{
					"destination" : [ "obj-61", 0 ],
					"source" : [ "obj-60", 0 ]
				}

			}
, 			{
				"patchline" : 				{
					"destination" : [ "obj-47", 0 ],
					"source" : [ "obj-61", 0 ]
				}

			}
, 			{
				"patchline" : 				{
					"destination" : [ "obj-4", 0 ],
					"source" : [ "obj-7", 0 ]
				}

			}
 ],
		"parameters" : 		{
			"obj-10" : [ "mc.live.gain~[1]", "mc.live.gain~[1]", 0 ],
			"obj-12::obj-100" : [ "mc.live.gain~[3]", "memory echo", 0 ],
			"obj-12::obj-13" : [ "mc.live.gain~[11]", "reverb", 0 ],
			"obj-12::obj-39" : [ "mc.live.gain~[4]", "memory echo", 0 ],
			"obj-12::obj-44" : [ "mc.live.gain~[2]", "main", 0 ],
			"obj-15" : [ "mc.live.gain~[10]", "blips", 0 ],
			"obj-1::obj-71::obj-10" : [ "live.tab[1]", "live.tab", 0 ],
			"obj-1::obj-71::obj-14" : [ "live.toggle[1]", "live.toggle", 0 ],
			"obj-1::obj-71::obj-26" : [ "live.menu[2]", "live.menu", 0 ],
			"obj-1::obj-71::obj-28" : [ "live.dial[5]", " ", 0 ],
			"obj-1::obj-71::obj-32" : [ "live.dial[7]", " ", 0 ],
			"obj-1::obj-71::obj-41" : [ "live.dial[6]", "scaling", 0 ],
			"obj-1::obj-71::obj-71" : [ "live.dial[8]", "scaling", 0 ],
			"obj-1::obj-71::obj-81" : [ "live.text[1]", "live.text[16]", 0 ],
			"obj-21::obj-15" : [ "mc.live.gain~[9]", "reverb", 0 ],
			"obj-47" : [ "mc.live.gain~", "main", 0 ],
			"obj-49::obj-100" : [ "mc.live.gain~[15]", "memory echo", 0 ],
			"obj-49::obj-13" : [ "mc.live.gain~[12]", "reverb", 0 ],
			"obj-49::obj-39" : [ "mc.live.gain~[14]", "memory echo", 0 ],
			"obj-49::obj-44" : [ "mc.live.gain~[13]", "main", 0 ],
			"obj-4::obj-18::obj-56" : [ "tab", "tab", 0 ],
			"obj-59::obj-43" : [ "vst~[1]", "vst~[1]", 0 ],
			"obj-60" : [ "mc.live.gain~[8]", "reverb send", 0 ],
			"obj-61::obj-71::obj-10" : [ "live.tab[3]", "live.tab", 0 ],
			"obj-61::obj-71::obj-14" : [ "live.toggle[3]", "live.toggle", 0 ],
			"obj-61::obj-71::obj-26" : [ "live.menu[1]", "live.menu", 0 ],
			"obj-61::obj-71::obj-28" : [ "live.dial[4]", " ", 0 ],
			"obj-61::obj-71::obj-32" : [ "live.dial[3]", " ", 0 ],
			"obj-61::obj-71::obj-41" : [ "live.dial[2]", "scaling", 0 ],
			"obj-61::obj-71::obj-71" : [ "live.dial[1]", "scaling", 0 ],
			"obj-61::obj-71::obj-81" : [ "live.text[3]", "live.text[16]", 0 ],
			"parameterbanks" : 			{
				"0" : 				{
					"index" : 0,
					"name" : "",
					"parameters" : [ "-", "-", "-", "-", "-", "-", "-", "-" ]
				}

			}
,
			"parameter_overrides" : 			{
				"obj-12::obj-100" : 				{
					"parameter_longname" : "mc.live.gain~[3]"
				}
,
				"obj-12::obj-13" : 				{
					"parameter_longname" : "mc.live.gain~[11]"
				}
,
				"obj-12::obj-39" : 				{
					"parameter_longname" : "mc.live.gain~[4]"
				}
,
				"obj-12::obj-44" : 				{
					"parameter_longname" : "mc.live.gain~[2]",
					"parameter_shortname" : "main"
				}
,
				"obj-1::obj-71::obj-10" : 				{
					"parameter_longname" : "live.tab[1]"
				}
,
				"obj-1::obj-71::obj-14" : 				{
					"parameter_longname" : "live.toggle[1]"
				}
,
				"obj-1::obj-71::obj-26" : 				{
					"parameter_longname" : "live.menu[2]"
				}
,
				"obj-1::obj-71::obj-28" : 				{
					"parameter_longname" : "live.dial[5]"
				}
,
				"obj-1::obj-71::obj-32" : 				{
					"parameter_longname" : "live.dial[7]"
				}
,
				"obj-1::obj-71::obj-41" : 				{
					"parameter_longname" : "live.dial[6]"
				}
,
				"obj-1::obj-71::obj-71" : 				{
					"parameter_longname" : "live.dial[8]"
				}
,
				"obj-1::obj-71::obj-81" : 				{
					"parameter_longname" : "live.text[1]"
				}
,
				"obj-49::obj-100" : 				{
					"parameter_longname" : "mc.live.gain~[15]"
				}
,
				"obj-49::obj-13" : 				{
					"parameter_longname" : "mc.live.gain~[12]"
				}
,
				"obj-49::obj-39" : 				{
					"parameter_longname" : "mc.live.gain~[14]"
				}
,
				"obj-49::obj-44" : 				{
					"parameter_longname" : "mc.live.gain~[13]"
				}
,
				"obj-61::obj-71::obj-10" : 				{
					"parameter_longname" : "live.tab[3]"
				}
,
				"obj-61::obj-71::obj-14" : 				{
					"parameter_longname" : "live.toggle[3]"
				}
,
				"obj-61::obj-71::obj-26" : 				{
					"parameter_longname" : "live.menu[1]"
				}
,
				"obj-61::obj-71::obj-28" : 				{
					"parameter_longname" : "live.dial[4]"
				}
,
				"obj-61::obj-71::obj-32" : 				{
					"parameter_longname" : "live.dial[3]"
				}
,
				"obj-61::obj-71::obj-41" : 				{
					"parameter_longname" : "live.dial[2]"
				}
,
				"obj-61::obj-71::obj-71" : 				{
					"parameter_longname" : "live.dial[1]"
				}
,
				"obj-61::obj-71::obj-81" : 				{
					"parameter_longname" : "live.text[3]"
				}

			}
,
			"inherited_shortname" : 1
		}
,
		"dependency_cache" : [ 			{
				"name" : "Pro-R 2_20250502.maxsnap",
				"bootpath" : "~/Documents/Max 9/Snapshots",
				"patcherrelativepath" : "../../../../../Max 9/Snapshots",
				"type" : "mx@s",
				"implicit" : 1
			}
, 			{
				"name" : "beam.ioeditor.IOInspector.maxpat",
				"bootpath" : "~/Documents/Max 9/Packages/Beam for Max/patchers/beam_ioeditor",
				"patcherrelativepath" : "../../../../../Max 9/Packages/Beam for Max/patchers/beam_ioeditor",
				"type" : "JSON",
				"implicit" : 1
			}
, 			{
				"name" : "beam.ioeditor.IOListItem.ArtNetOutput.maxpat",
				"bootpath" : "~/Documents/Max 9/Packages/Beam for Max/patchers/beam_ioeditor",
				"patcherrelativepath" : "../../../../../Max 9/Packages/Beam for Max/patchers/beam_ioeditor",
				"type" : "JSON",
				"implicit" : 1
			}
, 			{
				"name" : "beam.ioeditor.IOListItem.OutputsTitle.maxpat",
				"bootpath" : "~/Documents/Max 9/Packages/Beam for Max/patchers/beam_ioeditor",
				"patcherrelativepath" : "../../../../../Max 9/Packages/Beam for Max/patchers/beam_ioeditor",
				"type" : "JSON",
				"implicit" : 1
			}
, 			{
				"name" : "beam.ioeditor.IOListTable.maxpat",
				"bootpath" : "~/Documents/Max 9/Packages/Beam for Max/patchers/beam_ioeditor",
				"patcherrelativepath" : "../../../../../Max 9/Packages/Beam for Max/patchers/beam_ioeditor",
				"type" : "JSON",
				"implicit" : 1
			}
, 			{
				"name" : "beam.ioeditor.Main.maxpat",
				"bootpath" : "~/Documents/Max 9/Packages/Beam for Max/patchers/beam_ioeditor",
				"patcherrelativepath" : "../../../../../Max 9/Packages/Beam for Max/patchers/beam_ioeditor",
				"type" : "JSON",
				"implicit" : 1
			}
, 			{
				"name" : "beam.ioeditor.editor.js",
				"bootpath" : "~/Documents/Max 9/Packages/Beam for Max/patchers/beam_ioeditor",
				"patcherrelativepath" : "../../../../../Max 9/Packages/Beam for Max/patchers/beam_ioeditor",
				"type" : "TEXT",
				"implicit" : 1
			}
, 			{
				"name" : "beam.ioeditor.maxpat",
				"bootpath" : "~/Documents/Max 9/Packages/Beam for Max/patchers/beam_ioeditor",
				"patcherrelativepath" : "../../../../../Max 9/Packages/Beam for Max/patchers/beam_ioeditor",
				"type" : "JSON",
				"implicit" : 1
			}
, 			{
				"name" : "beam.ioeditor.view.js",
				"bootpath" : "~/Documents/Max 9/Packages/Beam for Max/patchers/beam_ioeditor",
				"patcherrelativepath" : "../../../../../Max 9/Packages/Beam for Max/patchers/beam_ioeditor",
				"type" : "TEXT",
				"implicit" : 1
			}
, 			{
				"name" : "beam.monitor.draw.js",
				"bootpath" : "~/Documents/Max 9/Packages/Beam for Max/patchers/beam_monitor",
				"patcherrelativepath" : "../../../../../Max 9/Packages/Beam for Max/patchers/beam_monitor",
				"type" : "TEXT",
				"implicit" : 1
			}
, 			{
				"name" : "beam.patcheditor.FixtureInspector.maxpat",
				"bootpath" : "~/Documents/Max 9/Packages/Beam for Max/patchers/beam_patcheditor",
				"patcherrelativepath" : "../../../../../Max 9/Packages/Beam for Max/patchers/beam_patcheditor",
				"type" : "JSON",
				"implicit" : 1
			}
, 			{
				"name" : "beam.patcheditor.FixtureListTable.maxpat",
				"bootpath" : "~/Documents/Max 9/Packages/Beam for Max/patchers/beam_patcheditor",
				"patcherrelativepath" : "../../../../../Max 9/Packages/Beam for Max/patchers/beam_patcheditor",
				"type" : "JSON",
				"implicit" : 1
			}
, 			{
				"name" : "beam.patcheditor.Main.maxpat",
				"bootpath" : "~/Documents/Max 9/Packages/Beam for Max/patchers/beam_patcheditor",
				"patcherrelativepath" : "../../../../../Max 9/Packages/Beam for Max/patchers/beam_patcheditor",
				"type" : "JSON",
				"implicit" : 1
			}
, 			{
				"name" : "beam.patcheditor.editor.js",
				"bootpath" : "~/Documents/Max 9/Packages/Beam for Max/patchers/beam_patcheditor",
				"patcherrelativepath" : "../../../../../Max 9/Packages/Beam for Max/patchers/beam_patcheditor",
				"type" : "TEXT",
				"implicit" : 1
			}
, 			{
				"name" : "beam.patcheditor.maxpat",
				"bootpath" : "~/Documents/Max 9/Packages/Beam for Max/patchers/beam_patcheditor",
				"patcherrelativepath" : "../../../../../Max 9/Packages/Beam for Max/patchers/beam_patcheditor",
				"type" : "JSON",
				"implicit" : 1
			}
, 			{
				"name" : "beam.patcheditor.view.js",
				"bootpath" : "~/Documents/Max 9/Packages/Beam for Max/patchers/beam_patcheditor",
				"patcherrelativepath" : "../../../../../Max 9/Packages/Beam for Max/patchers/beam_patcheditor",
				"type" : "TEXT",
				"implicit" : 1
			}
, 			{
				"name" : "exponentialEcho.js",
				"bootpath" : "~/Documents/of_v0.12.0_osx_release/apps/myApps/memoryPlanes-v2/memory-planes-max",
				"patcherrelativepath" : ".",
				"type" : "TEXT",
				"implicit" : 1
			}
, 			{
				"name" : "mem.blips.maxpat",
				"bootpath" : "~/Documents/of_v0.12.0_osx_release/apps/myApps/memoryPlanes-v2/memory-planes-max",
				"patcherrelativepath" : ".",
				"type" : "JSON",
				"implicit" : 1
			}
, 			{
				"name" : "mem.carousel.maxpat",
				"bootpath" : "~/Documents/of_v0.12.0_osx_release/apps/myApps/memoryPlanes-v2/memory-planes-max",
				"patcherrelativepath" : ".",
				"type" : "JSON",
				"implicit" : 1
			}
, 			{
				"name" : "mem.decay.maxpat",
				"bootpath" : "~/Documents/of_v0.12.0_osx_release/apps/myApps/memoryPlanes-v2/memory-planes-max",
				"patcherrelativepath" : ".",
				"type" : "JSON",
				"implicit" : 1
			}
, 			{
				"name" : "mem.ears.maxpat",
				"bootpath" : "~/Documents/of_v0.12.0_osx_release/apps/myApps/memoryPlanes-v2/memory-planes-max",
				"patcherrelativepath" : ".",
				"type" : "JSON",
				"implicit" : 1
			}
, 			{
				"name" : "mem.forLoop.maxpat",
				"bootpath" : "~/Documents/of_v0.12.0_osx_release/apps/myApps/memoryPlanes-v2/memory-planes-max",
				"patcherrelativepath" : ".",
				"type" : "JSON",
				"implicit" : 1
			}
, 			{
				"name" : "mem.growth.maxpat",
				"bootpath" : "~/Documents/of_v0.12.0_osx_release/apps/myApps/memoryPlanes-v2/memory-planes-max",
				"patcherrelativepath" : ".",
				"type" : "JSON",
				"implicit" : 1
			}
, 			{
				"name" : "mem.haze.maxpat",
				"bootpath" : "~/Documents/of_v0.12.0_osx_release/apps/myApps/memoryPlanes-v2/memory-planes-max",
				"patcherrelativepath" : ".",
				"type" : "JSON",
				"implicit" : 1
			}
, 			{
				"name" : "mem.inchesToMeters.maxpat",
				"bootpath" : "~/Documents/of_v0.12.0_osx_release/apps/myApps/memoryPlanes-v2/memory-planes-max",
				"patcherrelativepath" : ".",
				"type" : "JSON",
				"implicit" : 1
			}
, 			{
				"name" : "mem.lidar.maxpat",
				"bootpath" : "~/Documents/of_v0.12.0_osx_release/apps/myApps/memoryPlanes-v2/memory-planes-max",
				"patcherrelativepath" : ".",
				"type" : "JSON",
				"implicit" : 1
			}
, 			{
				"name" : "mem.memory.maxpat",
				"bootpath" : "~/Documents/of_v0.12.0_osx_release/apps/myApps/memoryPlanes-v2/memory-planes-max",
				"patcherrelativepath" : ".",
				"type" : "JSON",
				"implicit" : 1
			}
, 			{
				"name" : "mem.nextBlob.maxpat",
				"bootpath" : "~/Documents/of_v0.12.0_osx_release/apps/myApps/memoryPlanes-v2/memory-planes-max",
				"patcherrelativepath" : ".",
				"type" : "JSON",
				"implicit" : 1
			}
, 			{
				"name" : "mem.polyBlip.maxpat",
				"bootpath" : "~/Documents/of_v0.12.0_osx_release/apps/myApps/memoryPlanes-v2/memory-planes-max",
				"patcherrelativepath" : ".",
				"type" : "JSON",
				"implicit" : 1
			}
, 			{
				"name" : "mem.polyMemory.maxpat",
				"bootpath" : "~/Documents/of_v0.12.0_osx_release/apps/myApps/memoryPlanes-v2/memory-planes-max",
				"patcherrelativepath" : ".",
				"type" : "JSON",
				"implicit" : 1
			}
, 			{
				"name" : "mem.pony.maxpat",
				"bootpath" : "~/Documents/of_v0.12.0_osx_release/apps/myApps/memoryPlanes-v2/memory-planes-max",
				"patcherrelativepath" : ".",
				"type" : "JSON",
				"implicit" : 1
			}
, 			{
				"name" : "mem.reindex.maxpat",
				"bootpath" : "~/Documents/of_v0.12.0_osx_release/apps/myApps/memoryPlanes-v2/memory-planes-max",
				"patcherrelativepath" : ".",
				"type" : "JSON",
				"implicit" : 1
			}
, 			{
				"name" : "mem.spatConfig.maxpat",
				"bootpath" : "~/Documents/of_v0.12.0_osx_release/apps/myApps/memoryPlanes-v2/memory-planes-max",
				"patcherrelativepath" : ".",
				"type" : "JSON",
				"implicit" : 1
			}
, 			{
				"name" : "mem.spatReverb.maxpat",
				"bootpath" : "~/Documents/of_v0.12.0_osx_release/apps/myApps/memoryPlanes-v2/memory-planes-max",
				"patcherrelativepath" : ".",
				"type" : "JSON",
				"implicit" : 1
			}
, 			{
				"name" : "mem.starField.maxpat",
				"bootpath" : "~/Documents/of_v0.12.0_osx_release/apps/myApps/memoryPlanes-v2/memory-planes-max",
				"patcherrelativepath" : ".",
				"type" : "JSON",
				"implicit" : 1
			}
, 			{
				"name" : "mem.stutter.maxpat",
				"bootpath" : "~/Documents/of_v0.12.0_osx_release/apps/myApps/memoryPlanes-v2/memory-planes-max",
				"patcherrelativepath" : ".",
				"type" : "JSON",
				"implicit" : 1
			}
, 			{
				"name" : "mem.wfs.maxpat",
				"bootpath" : "~/Documents/of_v0.12.0_osx_release/apps/myApps/memoryPlanes-v2/memory-planes-max",
				"patcherrelativepath" : ".",
				"type" : "JSON",
				"implicit" : 1
			}
, 			{
				"name" : "mem.wfsReverbPositions.maxpat",
				"bootpath" : "~/Documents/of_v0.12.0_osx_release/apps/myApps/memoryPlanes-v2/memory-planes-max",
				"patcherrelativepath" : ".",
				"type" : "JSON",
				"implicit" : 1
			}
, 			{
				"name" : "moogLadderFilter.genexpr",
				"bootpath" : "~/Library/Application Support/Cycling '74/Max 9/Examples/gen",
				"patcherrelativepath" : "../../../../../../Library/Application Support/Cycling '74/Max 9/Examples/gen",
				"type" : "GenX",
				"implicit" : 1
			}
, 			{
				"name" : "poly.moogladderx2.maxpat",
				"bootpath" : "~/Library/Application Support/Cycling '74/Max 9/Examples/gen",
				"patcherrelativepath" : "../../../../../../Library/Application Support/Cycling '74/Max 9/Examples/gen",
				"type" : "JSON",
				"implicit" : 1
			}
, 			{
				"name" : "relativetoabsolute.maxpat",
				"bootpath" : "~/Documents/of_v0.12.0_osx_release/apps/myApps/memoryPlanes-v2/memory-planes-max",
				"patcherrelativepath" : ".",
				"type" : "JSON",
				"implicit" : 1
			}
, 			{
				"name" : "spat5.cpu.mxo",
				"type" : "iLaX"
			}
, 			{
				"name" : "spat5.osc.prepend.mxo",
				"type" : "iLaX"
			}
, 			{
				"name" : "spat5.pan~.mxo",
				"type" : "iLaX"
			}
, 			{
				"name" : "spat5.viewer.mxo",
				"type" : "iLaX"
			}
, 			{
				"name" : "spat5.wfs~.mxo",
				"type" : "iLaX"
			}
, 			{
				"name" : "thru.maxpat",
				"bootpath" : "C74:/patchers/m4l/Pluggo for Live resources/patches",
				"type" : "JSON",
				"implicit" : 1
			}
, 			{
				"name" : "wfs.formatSpat.maxpat",
				"bootpath" : "~/Documents/of_v0.12.0_osx_release/apps/myApps/memoryPlanes-v2/memory-planes-max",
				"patcherrelativepath" : ".",
				"type" : "JSON",
				"implicit" : 1
			}
, 			{
				"name" : "wfs.stackedSpeakerConfig.maxpat",
				"bootpath" : "~/Documents/of_v0.12.0_osx_release/apps/myApps/memoryPlanes-v2/memory-planes-max",
				"patcherrelativepath" : ".",
				"type" : "JSON",
				"implicit" : 1
			}
 ],
		"autosave" : 0
	}

}
